<svg xmlns="http://www.w3.org/2000/svg" width="300" height="165" fill="none" aria-labelledby="descId" role="img" viewBox="0 0 300 165"><title id="titleId"/><desc id="descId"/><style>.header{font:600 18px &apos;Segoe UI&apos;,Ubuntu,Sans-Serif;fill:#fff;animation:fadeInAnimation .8s ease-in-out forwards}@supports (-moz-appearance:auto){.header{font-size:15.5px}}.lang-name{font:400 11px &quot;Segoe UI&quot;,Ubuntu,Sans-Serif;fill:#9f9f9f}.stagger{opacity:0;animation:fadeInAnimation .3s ease-in-out forwards}#rect-mask rect{animation:slideInAnimation 1s ease-in-out forwards}</style><rect width="299" height="99%" x=".5" y=".5" fill="#151515" stroke="#e4e2e2" stroke-opacity="1" data-testid="card-bg" rx="4.5"/><g data-testid="card-title"><g><text x="0" y="0" class="header" data-testid="header" transform="translate(25, 35) translate(0, 0)">Most Used Languages</text></g></g><g data-testid="main-card-body" transform="translate(0, 55)"><svg x="25" data-testid="lang-items"><mask id="rect-mask"><rect width="250" height="8" x="0" y="0" fill="#fff" rx="5"/></mask><rect width="127.06" height="8" x="0" y="0" fill="#3572A5" data-testid="lang-progress" mask="url(#rect-mask)"/><rect width="73.26" height="8" x="127.06" y="0" fill="#00ADD8" data-testid="lang-progress" mask="url(#rect-mask)"/><rect width="23.6" height="8" x="200.32" y="0" fill="#DA5B0B" data-testid="lang-progress" mask="url(#rect-mask)"/><rect width="15.71" height="8" x="223.92" y="0" fill="#3178c6" data-testid="lang-progress" mask="url(#rect-mask)"/><rect width="15.76" height="8" x="239.63" y="0" fill="#4F5D95" data-testid="lang-progress" mask="url(#rect-mask)"/><rect width="14.61" height="8" x="245.39" y="0" fill="#f1e05a" data-testid="lang-progress" mask="url(#rect-mask)"/><g><g><g><g class="stagger" style="animation-delay:450ms" transform="translate(0, 25) translate(0, 0) translate(0, 0)"><circle cx="5" cy="6" r="5" fill="#3572A5"/><text x="15" y="10" class="lang-name" data-testid="lang-name">Python 50.83%</text></g></g><g><g class="stagger" style="animation-delay:600ms" transform="translate(0, 25) translate(0, 0) translate(0, 25)"><circle cx="5" cy="6" r="5" fill="#00ADD8"/><text x="15" y="10" class="lang-name" data-testid="lang-name">Go 29.30%</text></g></g><g><g class="stagger" style="animation-delay:750ms" transform="translate(0, 25) translate(0, 0) translate(0, 50)"><circle cx="5" cy="6" r="5" fill="#DA5B0B"/><text x="15" y="10" class="lang-name" data-testid="lang-name">Jupyter Notebook 9.44%</text></g></g></g><g><g><g class="stagger" style="animation-delay:450ms" transform="translate(0, 25) translate(150, 0) translate(0, 0)"><circle cx="5" cy="6" r="5" fill="#3178c6"/><text x="15" y="10" class="lang-name" data-testid="lang-name">TypeScript 6.28%</text></g></g><g><g class="stagger" style="animation-delay:600ms" transform="translate(0, 25) translate(150, 0) translate(0, 25)"><circle cx="5" cy="6" r="5" fill="#4F5D95"/><text x="15" y="10" class="lang-name" data-testid="lang-name">PHP 2.30%</text></g></g><g><g class="stagger" style="animation-delay:750ms" transform="translate(0, 25) translate(150, 0) translate(0, 50)"><circle cx="5" cy="6" r="5" fill="#f1e05a"/><text x="15" y="10" class="lang-name" data-testid="lang-name">JavaScript 1.84%</text></g></g></g></g></svg></g></svg>